HIERARCHY
ROOT mixamorig:Hips
{
	OFFSET 0.000000 104.274902 0.000000
	CHANNELS 6 Xposition Yposition Zposition Xrotation Yrotation Zrotation
	JOINT mixamorig:Spine
	{
		OFFSET 0.000000 10.181549 0.131524
		CHANNELS 6 Xposition Yposition Zposition Xrotation Yrotation Zrotation
		JOINT mixamorig:Spine1
		{
			OFFSET 0.000000 9.893990 -1.470706
			CHANNELS 3 Xrotation Yrotation Zrotation
			JOINT mixamorig:Spine2
			{
				OFFSET 0.000000 9.220787 -1.370637
				CHANNELS 3 Xrotation Yrotation Zrotation
				JOINT mixamorig:Neck
				{
					OFFSET 0.000000 16.740372 -2.049022
					CHANNELS 6 Xposition Yposition Zposition Xrotation Yrotation Zrotation
					JOINT mixamorig:Head
					{
						OFFSET 0.000000 9.617859 1.684976
						CHANNELS 6 Xposition Yposition Zposition Xrotation Yrotation Zrotation
						JOINT mixamorig:HeadTop_End
						{
							OFFSET 0.000000 22.037384 7.501072
							CHANNELS 6 Xposition Yposition Zposition Xrotation Yrotation Zrotation
							End Site
							{
								OFFSET 0.000000 23.106567 -2.828246
							}
						}
					}
				}
				JOINT mixamorig:RightShoulder
				{
					OFFSET -4.570000 11.014877 -2.160840
					CHANNELS 6 Xposition Yposition Zposition Xrotation Yrotation Zrotation
					JOINT mixamorig:RightArm
					{
						OFFSET -10.592867 -0.524796 -2.232105
						CHANNELS 3 Xrotation Yrotation Zrotation
						JOINT mixamorig:RightForeArm
						{
							OFFSET -27.841497 0.000000 -0.000002
							CHANNELS 3 Xrotation Yrotation Zrotation
							JOINT mixamorig:RightHand
							{
								OFFSET -28.328812 0.000000 -0.000001
								CHANNELS 3 Xrotation Yrotation Zrotation
								JOINT mixamorig:RightHandThumb1
								{
									OFFSET -2.464798 -1.573990 2.681911
									CHANNELS 6 Xposition Yposition Zposition Xrotation Yrotation Zrotation
									JOINT mixamorig:RightHandThumb2
									{
										OFFSET -3.244781 -1.873383 1.873376
										CHANNELS 3 Xrotation Yrotation Zrotation
										JOINT mixamorig:RightHandThumb3
										{
											OFFSET -2.646263 -1.527817 1.527818
											CHANNELS 6 Xposition Yposition Zposition Xrotation Yrotation Zrotation
											JOINT mixamorig:RightHandThumb4
											{
												OFFSET -1.994591 -1.151581 1.151575
												CHANNELS 6 Xposition Yposition Zposition Xrotation Yrotation Zrotation
												End Site
												{
													OFFSET -1.860176 -1.142715 1.365483
												}
											}
										}
									}
								}
								JOINT mixamorig:RightHandIndex1
								{
									OFFSET -9.108299 -0.517883 2.259803
									CHANNELS 6 Xposition Yposition Zposition Xrotation Yrotation Zrotation
									JOINT mixamorig:RightHandIndex2
									{
										OFFSET -3.699997 0.000000 0.000000
										CHANNELS 3 Xrotation Yrotation Zrotation
										JOINT mixamorig:RightHandIndex3
										{
											OFFSET -2.850006 0.000000 0.000000
											CHANNELS 3 Xrotation Yrotation Zrotation
											JOINT mixamorig:RightHandIndex4
											{
												OFFSET -2.772194 0.000000 0.000000
												CHANNELS 3 Xrotation Yrotation Zrotation
												End Site
												{
													OFFSET -2.772202 0.000000 -0.000484
												}
											}
										}
									}
								}
								JOINT mixamorig:RightHandMiddle1
								{
									OFFSET -9.532501 0.000000 -0.000000
									CHANNELS 6 Xposition Yposition Zposition Xrotation Yrotation Zrotation
									JOINT mixamorig:RightHandMiddle2
									{
										OFFSET -3.699997 0.000000 0.000000
										CHANNELS 3 Xrotation Yrotation Zrotation
										JOINT mixamorig:RightHandMiddle3
										{
											OFFSET -2.949997 0.000000 0.000000
											CHANNELS 3 Xrotation Yrotation Zrotation
											JOINT mixamorig:RightHandMiddle4
											{
												OFFSET -2.946594 0.000000 0.000000
												CHANNELS 3 Xrotation Yrotation Zrotation
												End Site
												{
													OFFSET -2.946602 0.000000 -0.000982
												}
											}
										}
									}
								}
								JOINT mixamorig:RightHandRing1
								{
									OFFSET -9.103600 -0.043106 -1.865100
									CHANNELS 6 Xposition Yposition Zposition Xrotation Yrotation Zrotation
									JOINT mixamorig:RightHandRing2
									{
										OFFSET -3.379303 0.000000 0.000000
										CHANNELS 3 Xrotation Yrotation Zrotation
										JOINT mixamorig:RightHandRing3
										{
											OFFSET -2.889694 0.000000 0.000000
											CHANNELS 3 Xrotation Yrotation Zrotation
											JOINT mixamorig:RightHandRing4
											{
												OFFSET -2.638802 0.000000 0.000000
												CHANNELS 3 Xrotation Yrotation Zrotation
												End Site
												{
													OFFSET -2.638802 0.000000 0.004218
												}
											}
										}
									}
								}
								JOINT mixamorig:RightHandPinky1
								{
									OFFSET -8.076698 -0.486725 -3.806299
									CHANNELS 6 Xposition Yposition Zposition Xrotation Yrotation Zrotation
									JOINT mixamorig:RightHandPinky2
									{
										OFFSET -3.600006 0.000000 0.000000
										CHANNELS 3 Xrotation Yrotation Zrotation
										JOINT mixamorig:RightHandPinky3
										{
											OFFSET -2.099998 0.000000 0.000000
											CHANNELS 3 Xrotation Yrotation Zrotation
											JOINT mixamorig:RightHandPinky4
											{
												OFFSET -2.115791 0.000000 0.000000
												CHANNELS 3 Xrotation Yrotation Zrotation
												End Site
												{
													OFFSET -2.115799 0.000000 0.000174
												}
											}
										}
									}
								}
							}
						}
					}
				}
				JOINT mixamorig:LeftShoulder
				{
					OFFSET 4.570400 11.014679 -2.160816
					CHANNELS 6 Xposition Yposition Zposition Xrotation Yrotation Zrotation
					JOINT mixamorig:LeftArm
					{
						OFFSET 10.592373 -0.524597 -2.232116
						CHANNELS 3 Xrotation Yrotation Zrotation
						JOINT mixamorig:LeftForeArm
						{
							OFFSET 27.841488 0.000000 0.000001
							CHANNELS 3 Xrotation Yrotation Zrotation
							JOINT mixamorig:LeftHand
							{
								OFFSET 28.328808 0.000000 -0.000000
								CHANNELS 3 Xrotation Yrotation Zrotation
								JOINT mixamorig:LeftHandThumb1
								{
									OFFSET 2.466103 -1.576202 2.681698
									CHANNELS 6 Xposition Yposition Zposition Xrotation Yrotation Zrotation
									JOINT mixamorig:LeftHandThumb2
									{
										OFFSET 3.243317 -1.872528 1.872530
										CHANNELS 3 Xrotation Yrotation Zrotation
										JOINT mixamorig:LeftHandThumb3
										{
											OFFSET 2.647881 -1.528763 1.528754
											CHANNELS 6 Xposition Yposition Zposition Xrotation Yrotation Zrotation
											JOINT mixamorig:LeftHandThumb4
											{
												OFFSET 1.998924 -1.154083 1.154080
												CHANNELS 6 Xposition Yposition Zposition Xrotation Yrotation Zrotation
												End Site
												{
													OFFSET 1.884041 -1.149155 1.337651
												}
											}
										}
									}
								}
								JOINT mixamorig:LeftHandIndex1
								{
									OFFSET 9.109299 -0.518005 2.259900
									CHANNELS 6 Xposition Yposition Zposition Xrotation Yrotation Zrotation
									JOINT mixamorig:LeftHandIndex2
									{
										OFFSET 3.699997 0.000000 0.000000
										CHANNELS 3 Xrotation Yrotation Zrotation
										JOINT mixamorig:LeftHandIndex3
										{
											OFFSET 2.850006 0.000000 0.000000
											CHANNELS 3 Xrotation Yrotation Zrotation
											JOINT mixamorig:LeftHandIndex4
											{
												OFFSET 2.774895 0.000000 0.000000
												CHANNELS 3 Xrotation Yrotation Zrotation
												End Site
												{
													OFFSET 2.774902 0.000000 -0.000072
												}
											}
										}
									}
								}
								JOINT mixamorig:LeftHandMiddle1
								{
									OFFSET 9.533401 0.000000 0.000000
									CHANNELS 6 Xposition Yposition Zposition Xrotation Yrotation Zrotation
									JOINT mixamorig:LeftHandMiddle2
									{
										OFFSET 3.699997 0.000000 0.000000
										CHANNELS 3 Xrotation Yrotation Zrotation
										JOINT mixamorig:LeftHandMiddle3
										{
											OFFSET 2.949997 0.000000 0.000000
											CHANNELS 3 Xrotation Yrotation Zrotation
											JOINT mixamorig:LeftHandMiddle4
											{
												OFFSET 2.952896 0.000000 0.000000
												CHANNELS 3 Xrotation Yrotation Zrotation
												End Site
												{
													OFFSET 2.952904 0.000000 0.000165
												}
											}
										}
									}
								}
								JOINT mixamorig:LeftHandRing1
								{
									OFFSET 9.104500 -0.042999 -1.865101
									CHANNELS 6 Xposition Yposition Zposition Xrotation Yrotation Zrotation
									JOINT mixamorig:LeftHandRing2
									{
										OFFSET 3.149994 0.000000 0.000000
										CHANNELS 3 Xrotation Yrotation Zrotation
										JOINT mixamorig:LeftHandRing3
										{
											OFFSET 2.950005 0.000000 0.000000
											CHANNELS 3 Xrotation Yrotation Zrotation
											JOINT mixamorig:LeftHandRing4
											{
												OFFSET 2.644302 0.000000 0.000000
												CHANNELS 3 Xrotation Yrotation Zrotation
												End Site
												{
													OFFSET 2.644302 0.000000 0.000083
												}
											}
										}
									}
								}
								JOINT mixamorig:LeftHandPinky1
								{
									OFFSET 8.077805 -0.486893 -3.806302
									CHANNELS 6 Xposition Yposition Zposition Xrotation Yrotation Zrotation
									JOINT mixamorig:LeftHandPinky2
									{
										OFFSET 3.600006 0.000000 0.000000
										CHANNELS 3 Xrotation Yrotation Zrotation
										JOINT mixamorig:LeftHandPinky3
										{
											OFFSET 2.099998 0.000000 0.000000
											CHANNELS 3 Xrotation Yrotation Zrotation
											JOINT mixamorig:LeftHandPinky4
											{
												OFFSET 2.125496 0.000000 0.000000
												CHANNELS 3 Xrotation Yrotation Zrotation
												End Site
												{
													OFFSET 2.125504 0.000000 -0.001254
												}
											}
										}
									}
								}
							}
						}
					}
				}
			}
		}
	}
	JOINT mixamorig:RightUpLeg
	{
		OFFSET -8.207800 -6.751701 -1.599544
		CHANNELS 6 Xposition Yposition Zposition Xrotation Yrotation Zrotation
		JOINT mixamorig:RightLeg
		{
			OFFSET 0.000004 -44.370152 0.345934
			CHANNELS 3 Xrotation Yrotation Zrotation
			JOINT mixamorig:RightFoot
			{
				OFFSET 0.000004 -44.423664 -3.043535
				CHANNELS 3 Xrotation Yrotation Zrotation
				JOINT mixamorig:RightToeBase
				{
					OFFSET 0.000001 -8.728691 10.710592
					CHANNELS 3 Xrotation Yrotation Zrotation
					JOINT mixamorig:RightToe_End
					{
						OFFSET 0.000000 -0.000665 9.278101
						CHANNELS 3 Xrotation Yrotation Zrotation
						End Site
						{
							OFFSET 0.000000 -0.000665 9.278103
						}
					}
				}
			}
		}
	}
	JOINT mixamorig:LeftUpLeg
	{
		OFFSET 8.207800 -6.751701 -1.599544
		CHANNELS 6 Xposition Yposition Zposition Xrotation Yrotation Zrotation
		JOINT mixamorig:LeftLeg
		{
			OFFSET 0.000004 -44.370037 0.346940
			CHANNELS 3 Xrotation Yrotation Zrotation
			JOINT mixamorig:LeftFoot
			{
				OFFSET 0.000004 -44.423611 -3.044388
				CHANNELS 3 Xrotation Yrotation Zrotation
				JOINT mixamorig:LeftToeBase
				{
					OFFSET 0.000001 -8.728690 10.710592
					CHANNELS 3 Xrotation Yrotation Zrotation
					JOINT mixamorig:LeftToe_End
					{
						OFFSET 0.000000 -0.000680 9.278101
						CHANNELS 3 Xrotation Yrotation Zrotation
						End Site
						{
							OFFSET 0.000000 -0.000680 9.278101
						}
					}
				}
			}
		}
	}
}
MOTION
Frames: 4
Frame Time: 0.033333
-1.113814 94.243767 1.083736 -3.043100 -37.117587 0.434675 -0.000000 10.181559 0.131525 6.013480 1.060378 -0.049956 8.054469 2.150791 -0.177945 8.035975 2.220407 -0.114724 -0.000002 16.740366 -2.049024 6.885360 1.390458 -7.964378 0.000003 9.617852 1.684980 7.867289 14.360222 -10.389951 -0.000000 22.037369 7.501067 -0.000000 -0.000000 0.000000 -4.570002 11.014874 -2.160839 2.891095 14.309184 -2.294401 -59.855946 30.339004 70.066888 0.000228 107.267431 -0.000168 -8.426194 8.375959 -17.701420 -2.464799 -1.574012 2.681907 8.395962 -16.401185 6.859039 13.617773 -18.222583 -1.655161 -2.646287 -1.527796 1.527823 70.789132 -48.031198 23.551701 -1.994590 -1.151595 1.151574 0.000000 -0.000001 -0.000000 -9.108302 -0.517884 2.259798 5.546596 -6.806065 78.334319 8.230100 -6.829513 100.656826 5.546576 -6.806060 78.334306 -0.000002 0.000004 -0.000000 -9.532499 0.000003 -0.000003 5.697931 -6.835632 79.099150 8.230153 -6.829524 100.657317 5.647032 -5.918525 77.577200 -0.000000 -0.000002 -0.000001 -9.103594 -0.043097 -1.865103 5.563000 -6.811841 76.969846 8.413763 -6.792656 102.205380 5.703240 -6.567469 79.241266 -0.000003 -0.000002 0.000000 -8.076706 -0.486716 -3.806303 5.546580 -6.806066 78.334326 8.230099 -6.829532 100.656846 5.546584 -6.806064 78.334306 -0.000000 0.000001 0.000000 4.570400 11.014705 -2.160813 2.391098 -3.429972 -2.776600 -37.186050 -14.474472 -66.783015 -0.000000 -126.636106 0.000018 3.341334 -4.183347 9.931987 2.466088 -1.576196 2.681694 5.477512 9.572976 -5.045669 18.936061 30.407056 -7.599485 2.647887 -1.528752 1.528750 8.227219 38.219283 10.744984 1.998932 -1.154079 1.154074 0.000000 0.000004 0.000003 9.109292 -0.518027 2.259896 5.029902 6.628792 -74.357490 8.636876 6.654702 -104.815830 5.029907 6.628803 -74.357483 0.000000 -0.000000 -0.000001 9.533397 -0.000004 -0.000002 5.203524 6.675211 -75.121098 8.636880 6.654690 -104.815933 4.936740 6.602174 -73.548973 0.000002 -0.000000 -0.000000 9.104482 -0.043010 -1.865105 5.041670 6.632589 -73.758940 8.710746 6.634857 -105.454187 5.075436 6.641288 -74.751544 0.000003 0.000001 -0.000000 8.077808 -0.486891 -3.806302 6.376420 6.940434 -77.258906 8.607700 2.575150 -104.532774 4.764988 6.549357 -72.049091 -0.000000 0.000000 0.000000 -8.207804 -6.751698 -1.599543 -16.108931 -13.149655 -18.717285 46.053527 -3.460718 0.583996 -26.648721 -3.717160 12.607863 -0.239266 0.000007 -0.000001 0.000000 -0.000000 0.000000 8.207796 -6.751712 -1.599547 -27.850113 10.575323 16.856355 29.816457 -9.110294 7.825302 -3.721065 -8.117647 -19.522813 -0.004563 -0.000002 0.000005 -0.000000 -0.000002 0.000000 
-1.509745 93.943199 1.151532 -3.171597 -36.588162 0.295334 -0.000000 10.181557 0.131524 6.088067 1.053101 -0.088862 8.146432 2.132863 -0.260799 8.128437 2.204896 -0.197340 -0.000001 16.740345 -2.049018 6.817920 1.391944 -7.930315 -0.000001 9.617835 1.684975 7.784836 14.376437 -10.395530 0.000002 22.037384 7.501081 -0.000003 -0.000001 -0.000000 -4.570000 11.014892 -2.160837 2.876563 14.313073 -2.330767 -59.693435 30.270739 70.071573 0.000217 107.339401 -0.000166 -8.161857 8.509684 -17.641407 -2.464797 -1.574000 2.681903 8.395962 -16.401183 6.859034 13.617771 -18.222579 -1.655167 -2.646287 -1.527799 1.527819 70.789139 -48.031191 23.551703 -1.994582 -1.151601 1.151582 0.000000 -0.000004 -0.000004 -9.108302 -0.517880 2.259803 5.546597 -6.806064 78.334319 8.230100 -6.829515 100.656826 5.546580 -6.806064 78.334306 -0.000002 0.000002 -0.000000 -9.532499 0.000005 -0.000005 5.697933 -6.835632 79.099157 8.230156 -6.829523 100.657317 5.647031 -5.918525 77.577200 -0.000000 0.000001 -0.000000 -9.103609 -0.043108 -1.865110 5.563003 -6.811842 76.969846 8.413765 -6.792654 102.205380 5.703240 -6.567468 79.241273 0.000000 -0.000002 0.000000 -8.076707 -0.486716 -3.806300 5.546581 -6.806066 78.334326 8.230100 -6.829533 100.656846 5.546586 -6.806064 78.334306 -0.000002 -0.000001 0.000000 4.570401 11.014677 -2.160811 2.369633 -3.355023 -2.732539 -37.127768 -14.626946 -66.871643 0.000007 -126.194493 0.000011 3.285510 -4.177684 9.737589 2.466112 -1.576204 2.681699 5.477509 9.572970 -5.045676 18.936064 30.407056 -7.599494 2.647895 -1.528750 1.528745 8.227216 38.219280 10.744982 1.998928 -1.154079 1.154065 0.000002 -0.000004 -0.000002 9.109290 -0.518001 2.259900 5.029900 6.628793 -74.357490 8.636875 6.654702 -104.815823 5.029908 6.628801 -74.357483 0.000001 -0.000002 -0.000001 9.533416 0.000011 0.000002 5.203522 6.675213 -75.121105 8.636877 6.654692 -104.815926 4.936740 6.602172 -73.548973 0.000002 0.000002 -0.000000 9.104527 -0.043003 -1.865101 5.041669 6.632591 -73.758940 8.710743 6.634855 -105.454180 5.075433 6.641287 -74.751544 0.000003 0.000001 -0.000000 8.077808 -0.486887 -3.806303 6.376418 6.940436 -77.258906 8.607694 2.575147 -104.532774 4.764988 6.549355 -72.049097 -0.000003 -0.000002 -0.000000 -8.207805 -6.751719 -1.599543 -15.924385 -13.252081 -18.679288 46.836622 -3.787869 0.873651 -27.368136 -3.790625 12.600179 -0.206146 0.000007 -0.000000 -0.000000 -0.000000 0.000000 8.207799 -6.751698 -1.599546 -28.277562 10.305940 17.033525 30.804898 -9.110389 8.069533 -4.358129 -8.536031 -19.755112 -0.030101 0.000002 0.000004 0.000000 0.000000 0.000000 
-1.905677 93.642624 1.219327 -3.297632 -36.058478 0.158403 -0.000000 10.181561 0.131524 6.162651 1.045776 -0.127760 8.238363 2.114803 -0.343623 8.220873 2.189262 -0.279934 0.000002 16.740355 -2.049024 6.750489 1.393394 -7.896253 -0.000003 9.617878 1.684971 7.702380 14.392665 -10.401088 -0.000002 22.037384 7.501079 0.000004 -0.000000 0.000000 -4.569998 11.014862 -2.160846 2.862030 14.316971 -2.367134 -59.531034 30.202485 70.076484 0.000214 107.411405 -0.000146 -7.897561 8.643685 -17.581991 -2.464788 -1.574004 2.681911 8.395961 -16.401178 6.859041 13.617771 -18.222584 -1.655166 -2.646252 -1.527803 1.527823 70.789126 -48.031195 23.551689 -1.994605 -1.151581 1.151580 0.000001 -0.000001 -0.000000 -9.108303 -0.517886 2.259808 5.546595 -6.806061 78.334319 8.230100 -6.829511 100.656826 5.546575 -6.806060 78.334306 -0.000003 -0.000001 0.000000 -9.532528 -0.000003 0.000005 5.697931 -6.835632 79.099157 8.230155 -6.829524 100.657324 5.647030 -5.918528 77.577193 0.000001 0.000002 0.000000 -9.103609 -0.043101 -1.865101 5.563001 -6.811838 76.969846 8.413765 -6.792656 102.205380 5.703241 -6.567469 79.241266 -0.000000 -0.000002 0.000000 -8.076692 -0.486716 -3.806298 5.546581 -6.806066 78.334326 8.230100 -6.829536 100.656846 5.546584 -6.806062 78.334306 -0.000000 -0.000001 0.000001 4.570402 11.014673 -2.160820 2.348111 -3.280097 -2.688454 -37.069691 -14.779496 -66.960176 -0.000010 -125.752867 0.000004 3.229701 -4.171827 9.543199 2.466117 -1.576203 2.681702 5.477510 9.572977 -5.045675 18.936071 30.407056 -7.599482 2.647887 -1.528748 1.528742 8.227221 38.219280 10.744986 1.998921 -1.154111 1.154064 -0.000001 0.000001 0.000001 9.109307 -0.517986 2.259902 5.029898 6.628794 -74.357490 8.636870 6.654700 -104.815823 5.029908 6.628801 -74.357483 -0.000002 0.000001 -0.000001 9.533412 0.000007 0.000006 5.203519 6.675215 -75.121105 8.636883 6.654690 -104.815926 4.936742 6.602171 -73.548973 -0.000000 0.000001 -0.000001 9.104512 -0.042995 -1.865102 5.041667 6.632590 -73.758940 8.710743 6.634856 -105.454180 5.075436 6.641289 -74.751544 -0.000003 0.000001 0.000002 8.077808 -0.486884 -3.806302 6.376417 6.940437 -77.258906 8.607697 2.575147 -104.532774 4.764988 6.549355 -72.049097 -0.000004 -0.000002 0.000001 -8.207801 -6.751695 -1.599546 -15.739695 -13.354400 -18.640940 47.621701 -4.111048 1.167888 -28.087669 -3.864002 12.591577 -0.173031 0.000007 -0.000000 0.000000 -0.000001 0.000000 8.207797 -6.751706 -1.599544 -28.703809 10.035259 17.208506 31.793390 -9.106319 8.313744 -4.997641 -8.951850 -19.992391 -0.055631 0.000018 0.000004 0.000000 -0.000001 0.000000 
-2.301607 93.342064 1.287124 -3.421271 -35.528561 0.023816 -0.000000 10.181544 0.131526 6.237228 1.038397 -0.166649 8.330270 2.096607 -0.426416 8.313287 2.173495 -0.362500 -0.000002 16.740347 -2.049018 6.683047 1.394801 -7.862186 -0.000001 9.617845 1.684975 7.619917 14.408894 -10.406621 -0.000000 22.037384 7.501074 0.000000 -0.000000 -0.000001 -4.570000 11.014878 -2.160836 2.847495 14.320872 -2.403500 -59.368715 30.134238 70.081593 0.000197 107.483374 -0.000151 -7.633318 8.777952 -17.523182 -2.464805 -1.573993 2.681918 8.395961 -16.401178 6.859040 13.617769 -18.222586 -1.655164 -2.646275 -1.527788 1.527819 70.789126 -48.031198 23.551698 -1.994590 -1.151596 1.151571 0.000003 -0.000003 -0.000000 -9.108303 -0.517884 2.259809 5.546597 -6.806063 78.334319 8.230102 -6.829513 100.656832 5.546575 -6.806059 78.334313 -0.000001 0.000001 -0.000000 -9.532530 0.000005 0.000007 5.697932 -6.835627 79.099157 8.230153 -6.829523 100.657317 5.647030 -5.918527 77.577200 -0.000000 0.000000 0.000000 -9.103594 -0.043112 -1.865096 5.563003 -6.811837 76.969846 8.413760 -6.792656 102.205380 5.703237 -6.567467 79.241266 -0.000001 0.000001 -0.000000 -8.076708 -0.486722 -3.806285 5.546581 -6.806065 78.334326 8.230101 -6.829531 100.656846 5.546584 -6.806063 78.334306 0.000002 0.000002 -0.000000 4.570403 11.014663 -2.160811 2.326532 -3.205180 -2.644340 -37.011812 -14.932146 -67.048593 -0.000009 -125.311240 0.000001 3.173918 -4.165789 9.348816 2.466120 -1.576195 2.681704 5.477513 9.572977 -5.045674 18.936068 30.407056 -7.599490 2.647897 -1.528750 1.528755 8.227219 38.219276 10.744984 1.998921 -1.154077 1.154066 -0.000001 0.000004 0.000001 9.109290 -0.517997 2.259904 5.029902 6.628790 -74.357490 8.636876 6.654703 -104.815823 5.029908 6.628800 -74.357483 -0.000002 0.000000 -0.000002 9.533404 -0.000008 0.000002 5.203522 6.675213 -75.121098 8.636883 6.654691 -104.815926 4.936741 6.602171 -73.548980 -0.000001 0.000003 -0.000002 9.104496 -0.043003 -1.865101 5.041667 6.632590 -73.758940 8.710744 6.634855 -105.454180 5.075433 6.641287 -74.751544 -0.000002 -0.000001 0.000001 8.077808 -0.486899 -3.806296 6.376417 6.940436 -77.258906 8.607696 2.575150 -104.532780 4.764988 6.549359 -72.049097 -0.000001 -0.000002 -0.000000 -8.207804 -6.751708 -1.599543 -15.554846 -13.456587 -18.602230 48.408727 -4.430152 1.466644 -28.807238 -3.937254 12.582048 -0.139912 0.000010 0.000001 0.000000 -0.000002 0.000000 8.207797 -6.751698 -1.599548 -29.128858 9.763309 17.381293 32.781763 -9.098094 8.557827 -5.639613 -9.365004 -20.234618 -0.081167 0.000020 0.000004 0.000000 -0.000002 0.000000 
